<?xml version="1.0" encoding="utf-8"?>
<!-- Generator: Adobe Illustrator 15.0.0, SVG Export Plug-In . SVG Version: 6.00 Build 0)  -->
<!DOCTYPE svg PUBLIC "-//W3C//DTD SVG 1.1//EN" "http://www.w3.org/Graphics/SVG/1.1/DTD/svg11.dtd">
<svg version="1.1" id="Layer_1" xmlns="http://www.w3.org/2000/svg" xmlns:xlink="http://www.w3.org/1999/xlink" x="0px" y="0px"
	 width="288px" height="68.469px" viewBox="0 0 288 68.469" enable-background="new 0 0 288 68.469" xml:space="preserve">
<path fill-rule="evenodd" clip-rule="evenodd" fill="#FFFFFF" d="M85.028,32.611v30.501h-6.594V23.519h10.713
	c2.491,9.019,5.007,18.129,7.593,27.487c0.231-0.666,0.417-1.125,0.55-1.602c2.314-8.299,4.631-16.6,6.902-24.911
	c0.224-0.827,0.521-1.11,1.39-1.096c3.202,0.055,6.408,0.021,9.68,0.021v39.7h-6.521V32.366c-0.073-0.013-0.147-0.02-0.22-0.031
	c-2.932,10.267-5.862,20.533-8.795,30.812h-5.83c-2.875-10.193-5.75-20.391-8.63-30.588C85.189,32.578,85.109,32.592,85.028,32.611"
	/>
<path fill-rule="evenodd" clip-rule="evenodd" fill="#FFFFFF" d="M207.204,63.134h-6.881v-1.383c0-5.967-0.114-11.935,0.04-17.901
	c0.114-4.474-3.188-5.108-6.061-3.53c-2.077,1.138-3.295,2.42-3.152,5.142c0.279,5.416,0.086,10.86,0.086,16.29v1.383h-6.834V34.608
	h6.204v2.947c2.442-2.328,5.05-3.612,8.191-3.615c3.191-0.004,5.763,1.112,7.432,4.053c0.674-0.564,1.275-1.107,1.917-1.592
	c2.174-1.642,4.659-2.373,7.356-2.454c4.384-0.124,7.396,2.597,7.511,7.182c0.158,6.334,0.064,12.671,0.076,19.01
	c0.003,0.975,0,1.956,0,2.987h-6.849v-1.382c0-5.968-0.126-11.942,0.039-17.902c0.126-4.635-3.396-5.079-6.042-3.501
	c-0.032,0.021-0.068,0.056-0.101,0.07c-2.088,0.997-3.142,2.356-3.013,4.957c0.262,5.419,0.079,10.859,0.079,16.293V63.134z"/>
<path fill-rule="evenodd" clip-rule="evenodd" fill="#FFFFFF" d="M281.218,63.126h-6.855v-1.379c0-5.591,0.021-11.189-0.015-16.78
	c-0.007-1.1-0.186-2.21-0.415-3.284c-0.297-1.383-1.304-2.068-2.665-2.146c-2.543-0.144-4.648,0.883-6.404,2.636
	c-0.286,0.29-0.351,0.896-0.354,1.357c-0.021,6.05-0.011,12.092-0.011,18.142v1.43h-6.783v-28.52h6.282v2.788
	c1.39-0.797,2.601-1.545,3.86-2.194c1.823-0.937,3.769-1.395,5.832-1.182c4.362,0.455,7.041,3.114,7.371,7.509
	c0.179,2.375,0.143,4.768,0.15,7.153c0.021,4.358,0.007,8.718,0.007,13.08V63.126z"/>
<rect x="139.156" y="23.295" fill-rule="evenodd" clip-rule="evenodd" fill="#FFFFFF" width="7.015" height="39.895"/>
<rect x="154.474" y="23.254" fill-rule="evenodd" clip-rule="evenodd" fill="#FFFFFF" width="7.006" height="39.887"/>
<rect x="123.846" y="34.408" fill-rule="evenodd" clip-rule="evenodd" fill="#FFFFFF" width="7.013" height="28.783"/>
<rect x="169.774" y="34.404" fill-rule="evenodd" clip-rule="evenodd" fill="#FFFFFF" width="7.063" height="28.743"/>
<rect x="123.828" y="23.272" fill-rule="evenodd" clip-rule="evenodd" fill="#FFFFFF" width="7.056" height="6.555"/>
<rect x="169.774" y="23.295" fill-rule="evenodd" clip-rule="evenodd" fill="#FFFFFF" width="7.06" height="6.517"/>
<path fill-rule="evenodd" clip-rule="evenodd" fill="#FFFFFF" d="M47.711,23.489c-0.174-0.172-0.346-0.346-0.518-0.518V7.736h15.752
	v15.753H47.711z"/>
<path fill="#9EB896" d="M62.977,41.38c-0.013-1.709-0.683-3.172-1.923-4.397c-4.119-4.083-8.211-8.195-12.309-12.302
	c-0.371-0.371-0.689-0.793-1.033-1.192c-0.172-0.172-0.346-0.349-0.518-0.518c-0.34-0.29-0.704-0.55-1.019-0.865
	c-4.049-4.035-8.109-8.061-12.123-12.137c-1.417-1.429-3.026-2.127-5.058-2.113c-6.66,0.048-13.33,0.016-19.99,0.023
	c-0.399,0-0.799,0.036-1.239,0.059v55.145h55.152c0.032-0.236,0.066-0.357,0.066-0.479C62.988,55.529,63.009,48.455,62.977,41.38
	 M47.197,47.398H23.312V23.544h23.885V47.398z"/>
<path fill="#FFFFFF" d="M250.923,58.28c-0.093-5.258-0.011-10.527-0.269-15.774c-0.172-3.583-1.687-6.54-5.419-7.738
	c-2.944-0.951-5.975-1.171-8.983-0.371c-2.872,0.763-5.379,2.156-7.127,4.808c1.508,1.155,2.958,2.263,4.19,3.212
	c1.368-1.02,2.461-2.147,3.789-2.772c3.911-1.838,6.941,0.093,6.906,4.19c-0.008,0.773-0.201,1.046-1.007,1.143
	c-3.271,0.397-6.486,1.039-9.488,2.461c-2.779,1.317-4.936,3.23-5.681,6.383c-1.329,5.645,2.293,10.079,8.06,9.878
	c2.479-0.082,4.764-0.788,6.884-2.045c0.473-0.275,0.949-0.556,1.465-0.863c0.19,0.874,0.354,1.619,0.505,2.324h6.434
	C251.092,61.461,250.952,59.874,250.923,58.28 M243.975,55.014c-0.007,0.312-0.215,0.76-0.466,0.906
	c-1.519,0.874-3.022,1.819-4.638,2.453c-1.559,0.612-3.073,0.008-3.826-1.149c-0.827-1.278-0.741-3.145,0.283-4.37
	c0.387-0.458,0.867-0.881,1.39-1.188c2.192-1.29,4.656-1.705,7.278-2.146C243.996,51.485,244.018,53.251,243.975,55.014"/>
</svg>
